<?xml version="1.0" standalone="no"?>
<!DOCTYPE svg PUBLIC "-//W3C//DTD SVG 20010904//EN"
 "http://www.w3.org/TR/2001/REC-SVG-20010904/DTD/svg10.dtd">
<svg version="1.0" xmlns="http://www.w3.org/2000/svg"
 width="59.000000pt" height="88.000000pt" viewBox="0 0 59.000000 88.000000"
 preserveAspectRatio="xMidYMid meet">
<metadata>
Created by potrace 1.16, written by Peter Selinger 2001-2019
</metadata>
<g transform="translate(0.000000,88.000000) scale(0.100000,-0.100000)"
fill="#000000" stroke="none">
<path d="M307 792 c-9 -49 -20 -115 -23 -148 l-6 -60 -37 18 c-45 22 -77 15
-163 -37 -33 -19 -64 -35 -69 -35 -5 0 -9 -7 -9 -15 0 -20 20 -19 49 2 24 16
24 16 16 -8 -16 -44 -11 -122 9 -151 14 -22 26 -28 55 -28 45 0 89 38 121 106
12 24 25 46 29 48 4 3 12 -15 19 -39 15 -57 35 -75 84 -75 33 0 47 7 76 36 39
39 69 54 108 54 15 0 24 6 24 16 0 14 -8 15 -47 9 -47 -6 -123 -46 -123 -64 0
-14 -37 -23 -59 -16 -27 8 -54 94 -48 148 2 23 14 92 26 152 26 140 27 175 3
175 -15 0 -21 -16 -35 -88z m-82 -249 l32 -37 -24 -42 c-33 -59 -77 -104 -101
-104 -46 0 -66 77 -38 145 13 31 66 75 90 75 5 0 23 -17 41 -37z"/>
</g>
</svg>
