<?xml version="1.0" standalone="no"?>
<!DOCTYPE svg PUBLIC "-//W3C//DTD SVG 20010904//EN"
 "http://www.w3.org/TR/2001/REC-SVG-20010904/DTD/svg10.dtd">
<svg version="1.0" xmlns="http://www.w3.org/2000/svg"
 width="59.000000pt" height="88.000000pt" viewBox="0 0 59.000000 88.000000"
 preserveAspectRatio="xMidYMid meet">
<metadata>
Created by potrace 1.16, written by Peter Selinger 2001-2019
</metadata>
<g transform="translate(0.000000,88.000000) scale(0.100000,-0.100000)"
fill="#000000" stroke="none">
<path d="M376 791 c-4 -5 -11 -36 -17 -68 -19 -104 -115 -262 -203 -333 -49
-40 -53 -42 -104 -37 -47 5 -52 4 -52 -14 0 -17 7 -19 61 -19 71 0 86 7 136
61 l38 40 33 -17 c23 -11 31 -21 27 -31 -8 -22 -35 -220 -35 -258 0 -17 6 -40
14 -50 12 -17 16 -18 31 -5 29 24 63 84 80 142 13 47 13 60 1 100 -7 26 -23
60 -35 76 -29 41 -27 51 17 68 20 9 49 27 63 41 l27 25 60 -41 c65 -45 72 -47
72 -28 0 8 -24 30 -53 50 -64 44 -98 45 -145 5 -31 -27 -52 -35 -52 -22 0 4 4
23 10 43 52 200 63 271 43 278 -6 2 -14 0 -17 -6z m-58 -296 c-8 -23 -20 -41
-30 -43 -25 -5 -22 10 10 61 30 50 39 41 20 -18z m32 -189 c13 -49 8 -87 -22
-158 -27 -63 -43 -63 -34 -1 4 27 9 80 12 118 9 111 21 123 44 41z"/>
</g>
</svg>
