<?xml version="1.0" standalone="no"?>
<!DOCTYPE svg PUBLIC "-//W3C//DTD SVG 20010904//EN"
 "http://www.w3.org/TR/2001/REC-SVG-20010904/DTD/svg10.dtd">
<svg version="1.0" xmlns="http://www.w3.org/2000/svg"
 width="59.000000pt" height="88.000000pt" viewBox="0 0 59.000000 88.000000"
 preserveAspectRatio="xMidYMid meet">
<metadata>
Created by potrace 1.16, written by Peter Selinger 2001-2019
</metadata>
<g transform="translate(0.000000,88.000000) scale(0.100000,-0.100000)"
fill="#000000" stroke="none">
<path d="M257 804 c-4 -4 -17 -7 -29 -8 -15 -1 -26 -10 -32 -27 -14 -42 -2
-59 42 -59 45 0 62 14 62 50 0 35 -26 61 -43 44z m13 -49 c0 -7 -7 -15 -15
-19 -20 -7 -45 3 -39 17 6 17 54 18 54 2z"/>
<path d="M217 623 c-2 -4 -7 -20 -11 -35 -5 -22 -23 -35 -105 -75 -83 -40
-100 -52 -100 -71 -1 -13 2 -22 7 -20 49 22 161 84 176 97 18 15 19 15 13 -18
-4 -18 -7 -58 -7 -87 0 -51 -1 -54 -33 -68 -41 -16 -92 -76 -113 -131 -14 -39
-14 -44 6 -98 12 -32 33 -71 47 -87 28 -34 67 -40 82 -12 13 25 43 269 36 293
-7 22 -6 22 89 37 44 7 76 18 90 31 12 11 61 32 109 47 70 22 87 31 87 47 0
14 -4 17 -17 12 -10 -4 -61 -23 -113 -41 -52 -19 -106 -40 -120 -48 -14 -7
-49 -16 -78 -20 -51 -7 -52 -6 -47 16 5 27 27 184 29 212 1 19 -19 33 -27 19z
m-31 -330 c-3 -16 -10 -71 -16 -123 -13 -118 -18 -140 -29 -140 -13 0 -71 119
-71 145 0 41 80 145 113 145 5 0 6 -12 3 -27z"/>
</g>
</svg>
