<?xml version="1.0" standalone="no"?>
<!DOCTYPE svg PUBLIC "-//W3C//DTD SVG 20010904//EN"
 "http://www.w3.org/TR/2001/REC-SVG-20010904/DTD/svg10.dtd">
<svg version="1.0" xmlns="http://www.w3.org/2000/svg"
 width="59.000000pt" height="88.000000pt" viewBox="0 0 59.000000 88.000000"
 preserveAspectRatio="xMidYMid meet">
<metadata>
Created by potrace 1.16, written by Peter Selinger 2001-2019
</metadata>
<g transform="translate(0.000000,88.000000) scale(0.100000,-0.100000)"
fill="#000000" stroke="none">
<path d="M209 793 c-6 -16 -16 -53 -24 -85 -7 -31 -21 -67 -31 -81 -23 -30
-119 -97 -139 -97 -8 0 -15 -9 -15 -20 0 -11 6 -20 13 -20 15 0 75 36 104 63
29 26 37 18 23 -19 -7 -16 -14 -66 -17 -111 -5 -77 -4 -83 13 -83 13 0 26 17
43 55 29 69 54 73 77 15 22 -55 56 -80 110 -80 49 0 91 14 119 40 11 10 39 21
63 25 28 4 42 12 42 22 0 21 -69 8 -147 -28 -70 -33 -90 -35 -119 -14 -27 18
-53 77 -36 83 50 16 84 82 62 121 -27 52 -112 -2 -165 -105 -37 -72 -43 -50
-16 59 12 47 31 93 47 115 23 30 29 49 32 104 4 58 2 68 -12 68 -9 0 -21 -12
-27 -27z m111 -246 c0 -22 -17 -44 -46 -60 -7 -4 -17 0 -23 7 -10 11 -5 21 21
45 40 37 48 38 48 8z"/>
</g>
</svg>
