<?xml version="1.0" standalone="no"?>
<!DOCTYPE svg PUBLIC "-//W3C//DTD SVG 20010904//EN"
 "http://www.w3.org/TR/2001/REC-SVG-20010904/DTD/svg10.dtd">
<svg version="1.0" xmlns="http://www.w3.org/2000/svg"
 width="59.000000pt" height="88.000000pt" viewBox="0 0 59.000000 88.000000"
 preserveAspectRatio="xMidYMid meet">
<metadata>
Created by potrace 1.16, written by Peter Selinger 2001-2019
</metadata>
<g transform="translate(0.000000,88.000000) scale(0.100000,-0.100000)"
fill="#000000" stroke="none">
<path d="M298 809 c-20 -11 -43 -82 -53 -161 -4 -30 -10 -60 -14 -66 -7 -11
-209 -122 -223 -122 -4 0 -8 -7 -8 -15 0 -8 7 -15 15 -15 18 0 147 63 186 91
l26 18 0 -72 c0 -76 14 -117 52 -151 13 -12 29 -16 43 -13 78 19 189 50 226
63 30 11 42 21 42 36 0 15 -4 18 -17 12 -54 -23 -159 -54 -171 -49 -7 3 -26
-2 -42 -10 -18 -9 -31 -11 -35 -5 -3 6 -14 10 -25 10 -25 0 -40 48 -40 134 0
68 1 72 39 111 26 27 45 61 59 104 23 72 21 84 -14 100 -29 13 -25 13 -46 0z
m42 -35 c0 -3 -7 -31 -16 -62 -15 -53 -38 -92 -48 -81 -5 4 22 127 30 141 6 9
34 11 34 2z"/>
</g>
</svg>
