<?xml version="1.0" standalone="no"?>
<!DOCTYPE svg PUBLIC "-//W3C//DTD SVG 20010904//EN"
 "http://www.w3.org/TR/2001/REC-SVG-20010904/DTD/svg10.dtd">
<svg version="1.0" xmlns="http://www.w3.org/2000/svg"
 width="59.000000pt" height="88.000000pt" viewBox="0 0 59.000000 88.000000"
 preserveAspectRatio="xMidYMid meet">
<metadata>
Created by potrace 1.16, written by Peter Selinger 2001-2019
</metadata>
<g transform="translate(0.000000,88.000000) scale(0.100000,-0.100000)"
fill="#000000" stroke="none">
<path d="M117 607 c-14 -24 -46 -62 -71 -85 -46 -42 -59 -72 -32 -72 8 0 33
21 55 47 22 26 43 44 47 41 7 -8 -19 -148 -36 -192 -15 -41 -13 -66 8 -66 12
0 27 27 56 101 41 106 93 200 114 207 9 3 12 -18 12 -80 0 -123 8 -158 34
-158 17 0 33 19 69 84 26 46 51 96 57 110 13 36 34 34 25 -1 -31 -123 -35
-163 -20 -193 14 -26 21 -30 60 -30 46 0 75 24 75 62 0 27 -25 22 -38 -7 -14
-31 -58 -35 -67 -6 -3 11 1 61 10 111 16 92 12 160 -9 160 -14 0 -62 -73 -113
-169 -20 -39 -39 -71 -43 -71 -3 0 -6 45 -7 100 0 103 -9 130 -43 130 -23 0
-44 -25 -85 -101 -39 -72 -46 -56 -19 37 26 90 3 113 -39 41z"/>
</g>
</svg>
