<?xml version="1.0" standalone="no"?>
<!DOCTYPE svg PUBLIC "-//W3C//DTD SVG 20010904//EN"
 "http://www.w3.org/TR/2001/REC-SVG-20010904/DTD/svg10.dtd">
<svg version="1.0" xmlns="http://www.w3.org/2000/svg"
 width="59.000000pt" height="88.000000pt" viewBox="0 0 59.000000 88.000000"
 preserveAspectRatio="xMidYMid meet">
<metadata>
Created by potrace 1.16, written by Peter Selinger 2001-2019
</metadata>
<g transform="translate(0.000000,88.000000) scale(0.100000,-0.100000)"
fill="#000000" stroke="none">
<path d="M340 569 c-19 -12 -219 -132 -287 -172 -33 -19 -53 -38 -53 -49 0
-10 3 -18 6 -18 10 0 126 71 165 102 47 36 67 37 45 3 -23 -35 -21 -111 3
-125 34 -18 62 -11 98 25 20 20 37 34 39 32 2 -2 -5 -38 -15 -79 -11 -42 -24
-116 -30 -164 -5 -49 -13 -97 -16 -106 -6 -14 -2 -18 18 -18 22 0 27 7 42 54
22 70 62 139 115 199 38 43 46 47 72 41 27 -5 29 -4 23 15 -5 15 -2 21 9 21 9
0 16 7 16 15 0 20 -16 19 -65 -4 -49 -22 -110 -89 -153 -168 -17 -32 -32 -51
-32 -42 0 18 31 148 67 282 21 78 24 100 14 106 -7 5 -18 19 -25 32 -13 26
-33 33 -56 18z m28 -94 c3 -37 -2 -45 -49 -93 -58 -59 -82 -63 -87 -15 -6 59
68 157 112 151 17 -2 22 -11 24 -43z"/>
</g>
</svg>
