<?xml version="1.0" standalone="no"?>
<!DOCTYPE svg PUBLIC "-//W3C//DTD SVG 20010904//EN"
 "http://www.w3.org/TR/2001/REC-SVG-20010904/DTD/svg10.dtd">
<svg version="1.0" xmlns="http://www.w3.org/2000/svg"
 width="59.000000pt" height="88.000000pt" viewBox="0 0 59.000000 88.000000"
 preserveAspectRatio="xMidYMid meet">
<metadata>
Created by potrace 1.16, written by Peter Selinger 2001-2019
</metadata>
<g transform="translate(0.000000,88.000000) scale(0.100000,-0.100000)"
fill="#000000" stroke="none">
<path d="M331 677 c-32 -40 -19 -140 25 -184 l26 -25 -23 -60 c-22 -60 -45
-83 -73 -72 -21 8 -30 45 -31 122 0 81 -20 82 -57 4 -33 -67 -64 -110 -74
-100 -3 4 3 42 14 85 41 159 37 213 -16 213 -28 0 -92 -53 -92 -77 0 -7 -8
-16 -17 -22 -21 -12 -17 -17 21 -27 26 -6 28 -5 21 15 -5 16 1 29 24 52 17 17
37 29 44 26 14 -5 12 -29 -14 -159 -21 -105 -15 -148 19 -148 22 0 43 21 66
68 22 43 36 40 36 -8 0 -48 27 -80 68 -80 44 0 68 25 93 95 19 51 28 65 44 65
11 -1 50 14 87 32 52 26 67 38 67 56 1 12 -2 22 -6 22 -4 0 -38 -19 -75 -41
-48 -29 -72 -39 -79 -32 -8 8 -7 17 0 32 13 24 -1 102 -25 139 -16 25 -55 29
-73 9z m59 -65 c13 -47 13 -102 0 -102 -16 0 -40 57 -40 98 0 65 22 67 40 4z"/>
</g>
</svg>
