<?xml version="1.0" standalone="no"?>
<!DOCTYPE svg PUBLIC "-//W3C//DTD SVG 20010904//EN"
 "http://www.w3.org/TR/2001/REC-SVG-20010904/DTD/svg10.dtd">
<svg version="1.0" xmlns="http://www.w3.org/2000/svg"
 width="59.000000pt" height="88.000000pt" viewBox="0 0 59.000000 88.000000"
 preserveAspectRatio="xMidYMid meet">
<metadata>
Created by potrace 1.16, written by Peter Selinger 2001-2019
</metadata>
<g transform="translate(0.000000,88.000000) scale(0.100000,-0.100000)"
fill="#000000" stroke="none">
<path d="M281 615 c-17 -20 -47 -66 -65 -104 -41 -80 -96 -133 -165 -158 -52
-18 -69 -43 -28 -43 36 1 109 38 150 78 21 20 52 64 69 97 33 66 74 125 87
125 13 0 41 -76 41 -111 0 -38 -42 -121 -75 -147 -14 -11 -25 -25 -25 -32 0
-12 4 -12 79 7 17 4 28 0 38 -12 18 -25 16 -35 -4 -35 -30 0 -117 -45 -148
-77 -17 -16 -39 -46 -50 -67 -18 -33 -19 -39 -5 -64 13 -22 24 -28 60 -30 56
-4 123 21 154 59 29 34 50 101 42 133 -5 19 1 25 47 40 104 35 107 37 107 62
l0 24 -32 -20 c-18 -11 -40 -20 -48 -20 -8 0 -28 -7 -44 -15 -16 -9 -30 -14
-31 -13 -1 2 -10 18 -19 36 -12 23 -23 32 -41 32 -30 0 -31 5 -5 37 34 44 43
97 26 156 -30 103 -63 121 -115 62z m119 -397 c-1 -18 -9 -49 -18 -68 -29 -59
-153 -106 -169 -64 -7 18 20 70 52 97 20 18 113 67 128 67 4 0 7 -15 7 -32z"/>
</g>
</svg>
