<?xml version="1.0" standalone="no"?>
<!DOCTYPE svg PUBLIC "-//W3C//DTD SVG 20010904//EN"
 "http://www.w3.org/TR/2001/REC-SVG-20010904/DTD/svg10.dtd">
<svg version="1.0" xmlns="http://www.w3.org/2000/svg"
 width="58.000000pt" height="90.000000pt" viewBox="0 0 58.000000 90.000000"
 preserveAspectRatio="xMidYMid meet">
<metadata>
Created by potrace 1.16, written by Peter Selinger 2001-2019
</metadata>
<g transform="translate(0.000000,90.000000) scale(0.100000,-0.100000)"
fill="#000000" stroke="none">
<path d="M238 463 c-13 -21 -32 -59 -42 -85 -9 -25 -23 -52 -31 -58 -16 -14
-35 -5 -35 16 0 8 -7 14 -15 14 -17 0 -20 -23 -5 -51 15 -28 66 -26 82 4 l12
22 6 -25 c8 -33 56 -39 90 -12 24 20 24 20 35 -2 6 -11 20 -22 31 -24 24 -3
84 42 84 64 0 20 -24 17 -45 -6 -10 -11 -24 -20 -30 -20 -23 0 -24 27 -4 91
11 35 17 69 15 76 -8 21 -33 15 -40 -9 -7 -22 -8 -22 -23 10 -23 45 -53 43
-85 -5z m60 -31 c2 -12 10 -22 18 -22 26 0 15 -46 -18 -79 -17 -17 -38 -31
-45 -31 -18 0 -17 56 3 114 17 48 36 57 42 18z"/>
</g>
</svg>
