<?xml version="1.0" standalone="no"?>
<!DOCTYPE svg PUBLIC "-//W3C//DTD SVG 20010904//EN"
 "http://www.w3.org/TR/2001/REC-SVG-20010904/DTD/svg10.dtd">
<svg version="1.0" xmlns="http://www.w3.org/2000/svg"
 width="58.000000pt" height="90.000000pt" viewBox="0 0 58.000000 90.000000"
 preserveAspectRatio="xMidYMid meet">
<metadata>
Created by potrace 1.16, written by Peter Selinger 2001-2019
</metadata>
<g transform="translate(0.000000,90.000000) scale(0.100000,-0.100000)"
fill="#000000" stroke="none">
<path d="M287 522 c-49 -54 -63 -169 -25 -217 18 -23 26 -26 56 -21 37 6 82
40 82 63 0 19 -24 16 -45 -7 -23 -25 -61 -26 -75 -1 -17 33 -11 45 30 63 27
11 45 27 56 52 16 33 16 36 0 60 -19 31 -56 34 -79 8z m53 -42 c0 -10 -12 -28
-27 -40 -24 -19 -28 -20 -31 -6 -4 20 36 78 49 71 5 -4 9 -15 9 -25z"/>
</g>
</svg>
