<?xml version="1.0" standalone="no"?>
<!DOCTYPE svg PUBLIC "-//W3C//DTD SVG 20010904//EN"
 "http://www.w3.org/TR/2001/REC-SVG-20010904/DTD/svg10.dtd">
<svg version="1.0" xmlns="http://www.w3.org/2000/svg"
 width="58.000000pt" height="90.000000pt" viewBox="0 0 58.000000 90.000000"
 preserveAspectRatio="xMidYMid meet">
<metadata>
Created by potrace 1.16, written by Peter Selinger 2001-2019
</metadata>
<g transform="translate(0.000000,90.000000) scale(0.100000,-0.100000)"
fill="#000000" stroke="none">
<path d="M370 561 c-29 -55 13 -106 54 -65 25 25 20 63 -10 74 -33 13 -32 13
-44 -9z m40 -30 c0 -6 -4 -13 -10 -16 -5 -3 -10 1 -10 9 0 9 5 16 10 16 6 0
10 -4 10 -9z"/>
<path d="M347 453 c-3 -5 -8 -27 -12 -50 -10 -62 -58 -100 -117 -94 -27 3 -21
-26 6 -33 26 -6 70 6 81 23 9 16 25 13 25 -4 0 -9 6 -18 14 -21 22 -8 56 14
56 36 0 23 -10 26 -28 8 -17 -17 -16 29 3 82 8 23 12 46 9 51 -6 11 -31 12
-37 2z"/>
</g>
</svg>
