<?xml version="1.0" standalone="no"?>
<!DOCTYPE svg PUBLIC "-//W3C//DTD SVG 20010904//EN"
 "http://www.w3.org/TR/2001/REC-SVG-20010904/DTD/svg10.dtd">
<svg version="1.0" xmlns="http://www.w3.org/2000/svg"
 width="59.000000pt" height="90.000000pt" viewBox="0 0 59.000000 90.000000"
 preserveAspectRatio="xMidYMid meet">
<metadata>
Created by potrace 1.16, written by Peter Selinger 2001-2019
</metadata>
<g transform="translate(0.000000,90.000000) scale(0.100000,-0.100000)"
fill="#000000" stroke="none">
<path d="M236 472 c-7 -46 -57 -118 -91 -134 -14 -6 -25 -15 -25 -20 0 -16 47
-8 65 12 27 30 34 25 28 -21 -6 -38 -4 -41 17 -37 18 2 30 18 53 73 16 39 33
74 37 78 4 5 7 -24 6 -64 -1 -64 1 -74 17 -77 30 -6 53 24 72 93 24 89 37 92
29 6 -8 -78 2 -101 41 -101 22 0 75 50 75 70 0 23 -25 21 -42 -3 -11 -15 -26
-27 -34 -27 -17 0 -18 26 -2 102 11 51 10 60 -4 75 -14 14 -19 14 -33 3 -22
-18 -49 -74 -65 -132 -20 -76 -32 -57 -24 38 7 85 7 86 -16 82 -25 -3 -28 -7
-66 -93 -33 -73 -42 -53 -14 29 25 73 25 86 1 86 -14 0 -20 -10 -25 -38z"/>
</g>
</svg>
