<?xml version="1.0" standalone="no"?>
<!DOCTYPE svg PUBLIC "-//W3C//DTD SVG 20010904//EN"
 "http://www.w3.org/TR/2001/REC-SVG-20010904/DTD/svg10.dtd">
<svg version="1.0" xmlns="http://www.w3.org/2000/svg"
 width="58.000000pt" height="91.000000pt" viewBox="0 0 58.000000 91.000000"
 preserveAspectRatio="xMidYMid meet">
<metadata>
Created by potrace 1.16, written by Peter Selinger 2001-2019
</metadata>
<g transform="translate(0.000000,91.000000) scale(0.100000,-0.100000)"
fill="#000000" stroke="none">
<path d="M180 480 c0 -27 -33 -90 -59 -114 -12 -11 -21 -23 -21 -28 0 -14 22
-9 42 9 18 16 18 15 16 -18 -2 -28 1 -35 17 -37 16 -2 24 7 37 45 21 58 54
113 68 113 7 0 8 -15 3 -42 -4 -24 -8 -59 -8 -78 0 -32 3 -35 32 -38 36 -4 73
25 73 58 0 27 -8 25 -37 -6 -33 -36 -43 -20 -31 49 12 66 1 90 -40 85 -18 -2
-32 -18 -54 -58 -27 -50 -29 -52 -23 -20 18 100 18 100 1 100 -9 0 -16 -8 -16
-20z"/>
</g>
</svg>
