<?xml version="1.0" standalone="no"?>
<!DOCTYPE svg PUBLIC "-//W3C//DTD SVG 20010904//EN"
 "http://www.w3.org/TR/2001/REC-SVG-20010904/DTD/svg10.dtd">
<svg version="1.0" xmlns="http://www.w3.org/2000/svg"
 width="59.000000pt" height="91.000000pt" viewBox="0 0 59.000000 91.000000"
 preserveAspectRatio="xMidYMid meet">
<metadata>
Created by potrace 1.16, written by Peter Selinger 2001-2019
</metadata>
<g transform="translate(0.000000,91.000000) scale(0.100000,-0.100000)"
fill="#000000" stroke="none">
<path d="M241 458 c-5 -13 -13 -36 -17 -53 -5 -16 -24 -39 -41 -50 -42 -26
-41 -39 3 -32 30 5 34 3 30 -11 -9 -28 -26 -145 -26 -174 0 -17 5 -28 13 -28
10 0 21 35 36 108 13 59 29 126 38 149 29 83 73 108 73 43 0 -55 -40 -106 -52
-68 -4 12 -28 3 -28 -12 0 -11 29 -40 40 -40 5 0 22 11 38 25 58 49 50 156
-11 163 -16 2 -35 -3 -44 -10 -13 -10 -17 -10 -20 0 -7 19 -23 14 -32 -10z"/>
</g>
</svg>
