<?xml version="1.0" standalone="no"?>
<!DOCTYPE svg PUBLIC "-//W3C//DTD SVG 20010904//EN"
 "http://www.w3.org/TR/2001/REC-SVG-20010904/DTD/svg10.dtd">
<svg version="1.0" xmlns="http://www.w3.org/2000/svg"
 width="59.000000pt" height="91.000000pt" viewBox="0 0 59.000000 91.000000"
 preserveAspectRatio="xMidYMid meet">
<metadata>
Created by potrace 1.16, written by Peter Selinger 2001-2019
</metadata>
<g transform="translate(0.000000,91.000000) scale(0.100000,-0.100000)"
fill="#000000" stroke="none">
<path d="M387 543 c-16 -16 -6 -73 19 -102 23 -28 25 -34 14 -65 -6 -19 -18
-40 -27 -47 -13 -11 -18 -10 -34 10 -19 23 -20 30 -23 101 -2 52 -29 47 -37
-7 -5 -41 -51 -123 -69 -123 -22 0 -26 118 -6 170 3 8 2 22 -4 30 -7 12 -12
12 -22 2 -18 -18 -40 -96 -28 -100 6 -2 10 -24 10 -48 0 -91 45 -112 99 -47
17 20 32 35 34 32 2 -2 11 -16 20 -31 35 -57 107 -22 123 59 4 20 15 33 35 40
19 8 29 18 29 32 0 25 -8 26 -32 4 -17 -15 -18 -14 -18 24 0 26 -6 46 -18 56
-19 17 -53 22 -65 10z m49 -48 c4 -14 3 -29 0 -33 -9 -8 -26 18 -26 41 0 26
19 20 26 -8z"/>
</g>
</svg>
