<?xml version="1.0" standalone="no"?>
<!DOCTYPE svg PUBLIC "-//W3C//DTD SVG 20010904//EN"
 "http://www.w3.org/TR/2001/REC-SVG-20010904/DTD/svg10.dtd">
<svg version="1.0" xmlns="http://www.w3.org/2000/svg"
 width="59.000000pt" height="91.000000pt" viewBox="0 0 59.000000 91.000000"
 preserveAspectRatio="xMidYMid meet">
<metadata>
Created by potrace 1.16, written by Peter Selinger 2001-2019
</metadata>
<g transform="translate(0.000000,91.000000) scale(0.100000,-0.100000)"
fill="#000000" stroke="none">
<path d="M222 467 c-22 -24 -30 -67 -12 -67 6 0 10 6 10 14 0 7 6 19 13 25 11
9 13 1 9 -44 -7 -83 2 -105 41 -105 l32 0 -36 -25 c-20 -13 -39 -31 -43 -40
-29 -75 48 -232 85 -173 5 7 9 56 9 109 0 53 3 99 7 103 4 4 8 26 8 49 1 23 5
70 10 105 7 53 6 62 -7 62 -17 0 -22 -16 -33 -91 -8 -55 -19 -74 -35 -64 -8 5
-11 32 -8 83 3 86 -10 102 -50 59z m78 -309 c-1 -72 -2 -81 -14 -65 -21 28
-29 86 -15 118 20 49 29 32 29 -53z"/>
</g>
</svg>
