<?xml version="1.0" standalone="no"?>
<!DOCTYPE svg PUBLIC "-//W3C//DTD SVG 20010904//EN"
 "http://www.w3.org/TR/2001/REC-SVG-20010904/DTD/svg10.dtd">
<svg version="1.0" xmlns="http://www.w3.org/2000/svg"
 width="59.000000pt" height="91.000000pt" viewBox="0 0 59.000000 91.000000"
 preserveAspectRatio="xMidYMid meet">
<metadata>
Created by potrace 1.16, written by Peter Selinger 2001-2019
</metadata>
<g transform="translate(0.000000,91.000000) scale(0.100000,-0.100000)"
fill="#000000" stroke="none">
<path d="M256 439 c-39 -35 -47 -47 -44 -72 4 -37 28 -49 28 -14 0 26 49 87
70 87 14 0 5 -33 -21 -76 -33 -55 -16 -74 28 -32 30 28 57 15 61 -30 3 -27 -1
-31 -33 -42 -51 -17 -105 -66 -105 -96 0 -26 40 -74 61 -74 21 0 89 77 95 109
4 18 16 39 28 47 20 14 20 16 4 28 -10 7 -18 26 -18 43 0 32 -26 63 -53 63
-20 0 -21 8 -7 46 7 19 7 30 -1 40 -19 23 -44 16 -93 -27z m114 -214 c0 -31
-62 -101 -79 -90 -22 13 -11 50 22 72 31 21 57 29 57 18z"/>
</g>
</svg>
