<?xml version="1.0" standalone="no"?>
<!DOCTYPE svg PUBLIC "-//W3C//DTD SVG 20010904//EN"
 "http://www.w3.org/TR/2001/REC-SVG-20010904/DTD/svg10.dtd">
<svg version="1.0" xmlns="http://www.w3.org/2000/svg"
 width="58.000000pt" height="88.000000pt" viewBox="0 0 58.000000 88.000000"
 preserveAspectRatio="xMidYMid meet">
<metadata>
Created by potrace 1.16, written by Peter Selinger 2001-2019
</metadata>
<g transform="translate(0.000000,88.000000) scale(0.100000,-0.100000)"
fill="#000000" stroke="none">
<path d="M342 603 c-21 -16 -49 -57 -73 -107 -54 -110 -82 -159 -96 -163 -15
-5 -43 25 -43 48 0 10 -7 19 -15 19 -24 0 -18 -48 10 -75 40 -41 86 -28 105
30 16 48 30 44 30 -9 0 -59 17 -73 70 -57 23 7 49 24 62 41 25 35 38 38 38 10
0 -27 30 -40 94 -40 47 0 56 3 56 18 0 15 -9 17 -57 17 -54 0 -58 2 -67 28 -7
19 -6 51 4 105 18 104 18 127 0 127 -10 0 -17 -17 -23 -55 -16 -119 -50 -185
-108 -216 -36 -18 -46 -3 -43 62 2 47 33 141 57 172 14 18 47 -14 47 -45 0
-14 6 -23 16 -23 14 0 15 9 9 63 -4 34 -9 65 -12 70 -8 13 -28 7 -61 -20z"/>
</g>
</svg>
