<?xml version="1.0" standalone="no"?>
<!DOCTYPE svg PUBLIC "-//W3C//DTD SVG 20010904//EN"
 "http://www.w3.org/TR/2001/REC-SVG-20010904/DTD/svg10.dtd">
<svg version="1.0" xmlns="http://www.w3.org/2000/svg"
 width="59.000000pt" height="88.000000pt" viewBox="0 0 59.000000 88.000000"
 preserveAspectRatio="xMidYMid meet">
<metadata>
Created by potrace 1.16, written by Peter Selinger 2001-2019
</metadata>
<g transform="translate(0.000000,88.000000) scale(0.100000,-0.100000)"
fill="#000000" stroke="none">
<path d="M290 813 c-13 -38 -36 -86 -51 -108 -16 -22 -38 -58 -50 -80 -37 -67
-128 -193 -160 -219 -26 -22 -41 -66 -21 -66 27 0 182 202 215 281 7 19 22 41
32 49 16 14 17 13 12 -5 -26 -85 -50 -335 -34 -351 12 -12 37 6 47 33 22 60
56 116 88 144 39 35 42 35 76 8 22 -17 26 -28 26 -72 0 -72 -13 -89 -40 -55
-24 31 -70 44 -99 28 -39 -20 -19 -102 29 -118 28 -10 77 -5 85 9 3 4 27 6 53
2 41 -4 50 -2 70 20 13 14 22 33 20 43 -3 15 -7 14 -34 -10 -18 -14 -39 -26
-49 -26 -14 0 -15 5 -8 33 4 17 8 56 7 86 -1 49 -4 57 -37 88 -20 18 -46 33
-57 33 -34 0 -103 -73 -124 -129 -18 -50 -43 -72 -33 -28 8 30 33 197 42 272
4 33 15 82 26 109 17 46 17 96 0 96 -4 0 -18 -30 -31 -67z m101 -455 c42 -24
46 -41 10 -46 -27 -4 -61 24 -61 50 0 23 4 23 51 -4z"/>
</g>
</svg>
