<?xml version="1.0" standalone="no"?>
<!DOCTYPE svg PUBLIC "-//W3C//DTD SVG 20010904//EN"
 "http://www.w3.org/TR/2001/REC-SVG-20010904/DTD/svg10.dtd">
<svg version="1.0" xmlns="http://www.w3.org/2000/svg"
 width="59.000000pt" height="88.000000pt" viewBox="0 0 59.000000 88.000000"
 preserveAspectRatio="xMidYMid meet">
<metadata>
Created by potrace 1.16, written by Peter Selinger 2001-2019
</metadata>
<g transform="translate(0.000000,88.000000) scale(0.100000,-0.100000)"
fill="#000000" stroke="none">
<path d="M318 639 c-62 -22 -184 -122 -237 -194 -16 -23 -41 -47 -55 -55 -30
-16 -34 -40 -8 -40 18 0 69 45 122 106 37 44 150 144 161 144 6 0 -4 -20 -21
-44 -65 -89 -58 -196 13 -233 33 -17 128 -11 183 12 46 19 114 88 114 116 0
21 -6 17 -58 -34 -59 -59 -80 -71 -62 -38 22 42 -2 43 -45 2 -16 -16 -47 -33
-67 -36 -31 -6 -41 -3 -62 19 -34 34 -35 90 -1 157 41 79 115 110 115 47 0
-21 27 -35 41 -21 10 10 -18 93 -36 105 -15 11 -34 9 -97 -13z"/>
</g>
</svg>
