<?xml version="1.0" standalone="no"?>
<!DOCTYPE svg PUBLIC "-//W3C//DTD SVG 20010904//EN"
 "http://www.w3.org/TR/2001/REC-SVG-20010904/DTD/svg10.dtd">
<svg version="1.0" xmlns="http://www.w3.org/2000/svg"
 width="59.000000pt" height="88.000000pt" viewBox="0 0 59.000000 88.000000"
 preserveAspectRatio="xMidYMid meet">
<metadata>
Created by potrace 1.16, written by Peter Selinger 2001-2019
</metadata>
<g transform="translate(0.000000,88.000000) scale(0.100000,-0.100000)"
fill="#000000" stroke="none">
<path d="M265 650 c-28 -11 -72 -60 -84 -93 -6 -16 -11 -46 -11 -69 0 -38 -1
-40 -25 -34 -13 3 -52 9 -85 13 -50 5 -60 3 -60 -9 0 -12 17 -17 67 -23 81 -8
103 -19 103 -46 0 -12 15 -36 34 -55 32 -32 38 -34 99 -34 59 0 70 4 118 37
47 33 61 38 111 38 47 0 58 3 58 16 0 23 -31 29 -82 17 -24 -6 -50 -10 -58
-10 -8 0 -26 -11 -40 -23 -37 -34 -64 -45 -107 -45 -42 0 -76 19 -94 51 -13
25 0 37 78 75 41 20 57 35 73 70 43 87 -12 159 -95 124z m56 -30 c24 -14 25
-67 1 -96 -9 -12 -33 -30 -52 -39 -19 -10 -43 -24 -53 -33 -26 -23 -31 -9 -17
50 9 38 24 64 50 91 42 41 43 41 71 27z"/>
</g>
</svg>
