<?xml version="1.0" standalone="no"?>
<!DOCTYPE svg PUBLIC "-//W3C//DTD SVG 20010904//EN"
 "http://www.w3.org/TR/2001/REC-SVG-20010904/DTD/svg10.dtd">
<svg version="1.0" xmlns="http://www.w3.org/2000/svg"
 width="59.000000pt" height="88.000000pt" viewBox="0 0 59.000000 88.000000"
 preserveAspectRatio="xMidYMid meet">
<metadata>
Created by potrace 1.16, written by Peter Selinger 2001-2019
</metadata>
<g transform="translate(0.000000,88.000000) scale(0.100000,-0.100000)"
fill="#000000" stroke="none">
<path d="M325 611 c-47 -29 -92 -82 -115 -135 l-20 -48 -95 4 c-88 4 -95 3
-95 -15 0 -17 7 -19 99 -15 91 3 99 1 107 -17 6 -14 20 -21 45 -23 32 -3 41 2
68 34 l30 38 -1 -57 -2 -58 -45 -20 c-53 -23 -109 -73 -123 -109 -35 -92 95
-229 155 -162 19 21 39 138 36 207 l-3 50 52 5 c41 4 58 12 75 32 12 14 39 31
60 38 34 10 53 40 26 40 -17 0 -131 -51 -150 -67 -8 -7 -25 -13 -37 -13 -18 0
-21 5 -17 28 2 15 6 49 10 76 3 27 9 54 14 60 4 6 11 37 15 69 6 52 4 57 -13
57 -11 0 -23 5 -26 10 -9 14 -16 13 -50 -9z m50 -31 c8 -13 -13 -80 -32 -101
-14 -17 -101 -44 -110 -35 -10 10 39 86 74 115 39 32 58 38 68 21z m-85 -175
c-13 -16 -55 -20 -64 -6 -9 14 5 21 42 21 29 0 33 -2 22 -15z m46 -172 c-3
-27 -8 -76 -12 -110 -7 -74 -22 -91 -58 -68 -64 42 -75 114 -23 161 35 33 77
63 90 63 5 1 6 -20 3 -46z"/>
</g>
</svg>
