<?xml version="1.0" standalone="no"?>
<!DOCTYPE svg PUBLIC "-//W3C//DTD SVG 20010904//EN"
 "http://www.w3.org/TR/2001/REC-SVG-20010904/DTD/svg10.dtd">
<svg version="1.0" xmlns="http://www.w3.org/2000/svg"
 width="59.000000pt" height="88.000000pt" viewBox="0 0 59.000000 88.000000"
 preserveAspectRatio="xMidYMid meet">
<metadata>
Created by potrace 1.16, written by Peter Selinger 2001-2019
</metadata>
<g transform="translate(0.000000,88.000000) scale(0.100000,-0.100000)"
fill="#000000" stroke="none">
<path d="M234 842 c-22 -14 -42 -68 -54 -150 -12 -79 -15 -85 -68 -145 -31
-34 -63 -70 -71 -79 -9 -10 -21 -18 -28 -18 -7 0 -13 -9 -13 -20 0 -11 6 -20
14 -20 14 0 74 58 115 110 26 34 36 19 22 -33 -17 -59 -18 -154 -2 -169 10
-11 18 -6 43 22 52 60 141 150 148 150 4 0 10 -22 12 -49 11 -109 84 -145 155
-76 20 20 46 35 60 35 14 0 23 6 23 15 0 17 -69 16 -91 -1 -8 -6 -22 -14 -31
-17 -10 -4 -18 -13 -18 -22 0 -8 -7 -15 -15 -15 -24 0 -47 46 -50 101 -3 64
-14 76 -54 59 -35 -14 -138 -114 -146 -142 -11 -32 -28 -20 -21 15 3 17 11 66
17 107 6 44 25 106 45 150 41 90 57 156 43 182 -11 20 -18 22 -35 10z m10 -69
c-4 -16 -13 -39 -20 -53 -11 -21 -13 -22 -14 -6 0 26 22 86 32 86 5 0 5 -12 2
-27z"/>
</g>
</svg>
