<?xml version="1.0" standalone="no"?>
<!DOCTYPE svg PUBLIC "-//W3C//DTD SVG 20010904//EN"
 "http://www.w3.org/TR/2001/REC-SVG-20010904/DTD/svg10.dtd">
<svg version="1.0" xmlns="http://www.w3.org/2000/svg"
 width="59.000000pt" height="88.000000pt" viewBox="0 0 59.000000 88.000000"
 preserveAspectRatio="xMidYMid meet">
<metadata>
Created by potrace 1.16, written by Peter Selinger 2001-2019
</metadata>
<g transform="translate(0.000000,88.000000) scale(0.100000,-0.100000)"
fill="#000000" stroke="none">
<path d="M262 750 c-27 -12 -36 -32 -28 -66 6 -22 11 -25 43 -22 31 3 38 8 44
32 9 32 -4 66 -24 65 -7 0 -22 -4 -35 -9z m32 -45 c-7 -16 -30 -20 -38 -6 -7
11 4 21 25 21 12 0 16 -5 13 -15z"/>
<path d="M235 618 c-3 -7 -11 -31 -18 -53 -12 -35 -21 -44 -86 -77 -41 -21
-87 -38 -102 -38 -23 0 -29 -5 -29 -21 0 -18 4 -20 32 -14 18 4 66 22 107 41
41 19 75 33 77 32 1 -2 -4 -27 -12 -57 -12 -48 -12 -58 1 -78 19 -28 48 -29
91 -3 42 26 151 50 232 50 51 0 62 3 62 17 0 14 -11 15 -93 10 -52 -3 -107
-11 -123 -17 -20 -8 -30 -8 -32 -1 -5 16 -29 13 -35 -3 -6 -16 -66 -50 -74
-43 -2 3 3 54 12 114 10 59 18 117 19 127 1 22 -22 34 -29 14z"/>
</g>
</svg>
