<?xml version="1.0" standalone="no"?>
<!DOCTYPE svg PUBLIC "-//W3C//DTD SVG 20010904//EN"
 "http://www.w3.org/TR/2001/REC-SVG-20010904/DTD/svg10.dtd">
<svg version="1.0" xmlns="http://www.w3.org/2000/svg"
 width="59.000000pt" height="88.000000pt" viewBox="0 0 59.000000 88.000000"
 preserveAspectRatio="xMidYMid meet">
<metadata>
Created by potrace 1.16, written by Peter Selinger 2001-2019
</metadata>
<g transform="translate(0.000000,88.000000) scale(0.100000,-0.100000)"
fill="#000000" stroke="none">
<path d="M135 530 c-66 -33 -135 -92 -135 -115 0 -20 14 -19 31 2 19 23 111
95 115 90 3 -2 -3 -21 -11 -41 -10 -24 -15 -60 -13 -99 3 -57 5 -63 31 -75 38
-18 88 -8 121 24 17 18 38 27 64 28 23 1 60 16 97 39 33 20 81 42 108 49 61
16 65 41 5 32 -55 -8 -91 -23 -152 -63 -63 -39 -89 -41 -80 -6 15 61 7 103
-25 136 -38 38 -78 38 -156 -1z m130 -20 c3 -5 2 -10 -4 -10 -5 0 -13 5 -16
10 -3 6 -2 10 4 10 5 0 13 -4 16 -10z m-28 -30 c19 -32 32 -37 51 -18 9 9 12
8 12 -7 0 -35 -12 -65 -25 -65 -14 0 -85 67 -85 80 0 16 12 40 21 40 4 0 16
-13 26 -30z m-4 -99 c36 -24 37 -26 20 -42 -26 -26 -65 -32 -87 -16 -16 12
-19 25 -18 63 4 80 11 91 30 52 10 -18 34 -44 55 -57z"/>
</g>
</svg>
