<?xml version="1.0" standalone="no"?>
<!DOCTYPE svg PUBLIC "-//W3C//DTD SVG 20010904//EN"
 "http://www.w3.org/TR/2001/REC-SVG-20010904/DTD/svg10.dtd">
<svg version="1.0" xmlns="http://www.w3.org/2000/svg"
 width="59.000000pt" height="88.000000pt" viewBox="0 0 59.000000 88.000000"
 preserveAspectRatio="xMidYMid meet">
<metadata>
Created by potrace 1.16, written by Peter Selinger 2001-2019
</metadata>
<g transform="translate(0.000000,88.000000) scale(0.100000,-0.100000)"
fill="#000000" stroke="none">
<path d="M192 585 c-7 -14 -24 -30 -39 -36 -84 -30 -153 -65 -153 -76 0 -20
16 -16 98 22 41 20 77 33 79 31 3 -3 -18 -74 -46 -158 -66 -196 -82 -260 -70
-273 16 -16 34 16 58 105 64 242 140 381 191 350 7 -4 15 -31 18 -58 8 -84
-54 -184 -94 -152 -21 18 -44 4 -44 -26 l0 -26 88 7 c48 4 103 11 122 16 19 5
70 6 113 3 65 -6 77 -4 77 8 0 19 -104 30 -175 18 -27 -5 -62 -9 -77 -9 l-27
-1 27 47 c19 35 26 61 26 98 -2 110 -63 150 -127 83 -32 -35 -32 -35 -11 32 9
30 -20 25 -34 -5z"/>
</g>
</svg>
