<?xml version="1.0" standalone="no"?>
<!DOCTYPE svg PUBLIC "-//W3C//DTD SVG 20010904//EN"
 "http://www.w3.org/TR/2001/REC-SVG-20010904/DTD/svg10.dtd">
<svg version="1.0" xmlns="http://www.w3.org/2000/svg"
 width="59.000000pt" height="88.000000pt" viewBox="0 0 59.000000 88.000000"
 preserveAspectRatio="xMidYMid meet">
<metadata>
Created by potrace 1.16, written by Peter Selinger 2001-2019
</metadata>
<g transform="translate(0.000000,88.000000) scale(0.100000,-0.100000)"
fill="#000000" stroke="none">
<path d="M155 586 c-3 -9 -7 -23 -10 -31 -8 -26 17 -75 46 -91 16 -8 29 -16
29 -18 0 -21 -37 -97 -58 -119 -42 -45 -56 -49 -84 -27 -14 10 -37 22 -51 25
-46 12 -32 -17 24 -48 44 -25 54 -27 78 -17 44 18 88 71 103 124 13 43 18 49
43 52 16 2 41 12 56 24 16 11 31 20 34 20 3 0 5 -26 5 -57 0 -68 23 -121 62
-142 24 -14 33 -13 90 5 41 13 64 26 66 37 5 24 -44 22 -87 -4 -30 -18 -35
-19 -57 -5 -42 28 -60 161 -29 220 8 15 12 32 9 37 -11 19 -34 7 -48 -24 -14
-35 -70 -77 -102 -77 -15 0 -22 13 -34 63 -14 59 -17 62 -48 65 -22 2 -34 -1
-37 -12z m58 -61 c9 -25 12 -45 8 -45 -12 0 -39 33 -41 50 -8 56 14 52 33 -5z"/>
</g>
</svg>
