<?xml version="1.0" standalone="no"?>
<!DOCTYPE svg PUBLIC "-//W3C//DTD SVG 20010904//EN"
 "http://www.w3.org/TR/2001/REC-SVG-20010904/DTD/svg10.dtd">
<svg version="1.0" xmlns="http://www.w3.org/2000/svg"
 width="59.000000pt" height="88.000000pt" viewBox="0 0 59.000000 88.000000"
 preserveAspectRatio="xMidYMid meet">
<metadata>
Created by potrace 1.16, written by Peter Selinger 2001-2019
</metadata>
<g transform="translate(0.000000,88.000000) scale(0.100000,-0.100000)"
fill="#000000" stroke="none">
<path d="M237 612 c-10 -10 -17 -29 -17 -41 0 -35 -167 -181 -207 -181 -7 0
-13 -9 -13 -20 0 -11 5 -20 12 -20 20 0 137 81 169 117 16 19 33 32 37 29 8
-9 42 -117 42 -137 0 -24 -41 -32 -62 -12 -14 13 -21 14 -30 5 -9 -9 -6 -18
12 -37 23 -25 24 -25 159 -20 214 8 251 13 251 37 0 14 -5 18 -15 15 -8 -4
-49 -9 -92 -12 -43 -3 -104 -8 -137 -11 -57 -5 -58 -5 -53 18 4 13 -6 58 -21
104 l-27 81 29 36 c24 30 27 39 16 52 -17 20 -33 19 -53 -3z"/>
</g>
</svg>
