<?xml version="1.0" standalone="no"?>
<!DOCTYPE svg PUBLIC "-//W3C//DTD SVG 20010904//EN"
 "http://www.w3.org/TR/2001/REC-SVG-20010904/DTD/svg10.dtd">
<svg version="1.0" xmlns="http://www.w3.org/2000/svg"
 width="59.000000pt" height="88.000000pt" viewBox="0 0 59.000000 88.000000"
 preserveAspectRatio="xMidYMid meet">
<metadata>
Created by potrace 1.16, written by Peter Selinger 2001-2019
</metadata>
<g transform="translate(0.000000,88.000000) scale(0.100000,-0.100000)"
fill="#000000" stroke="none">
<path d="M231 843 c-6 -21 -11 -50 -11 -65 0 -15 -5 -50 -11 -78 -11 -50 -11
-50 -50 -50 -33 0 -39 -3 -39 -21 0 -18 4 -20 30 -14 17 4 30 2 30 -3 0 -25
-60 -113 -117 -172 -62 -63 -77 -90 -49 -90 24 0 147 140 173 197 13 29 26 53
29 53 2 0 2 -35 -2 -77 -7 -84 7 -182 32 -221 9 -13 24 -22 40 -22 35 0 125
48 131 70 3 11 18 21 37 25 82 17 136 36 136 50 0 8 -5 15 -11 15 -17 0 -117
-29 -181 -52 -57 -20 -70 -32 -45 -41 6 -2 -5 -12 -27 -21 -21 -9 -42 -14 -46
-11 -16 10 -30 95 -32 202 l-3 112 73 7 c49 4 75 11 79 21 8 22 2 23 -71 12
-38 -5 -71 -8 -73 -6 -2 2 1 45 6 96 10 91 7 121 -10 121 -4 0 -13 -17 -18
-37z"/>
</g>
</svg>
