<?xml version="1.0" standalone="no"?>
<!DOCTYPE svg PUBLIC "-//W3C//DTD SVG 20010904//EN"
 "http://www.w3.org/TR/2001/REC-SVG-20010904/DTD/svg10.dtd">
<svg version="1.0" xmlns="http://www.w3.org/2000/svg"
 width="59.000000pt" height="88.000000pt" viewBox="0 0 59.000000 88.000000"
 preserveAspectRatio="xMidYMid meet">
<metadata>
Created by potrace 1.16, written by Peter Selinger 2001-2019
</metadata>
<g transform="translate(0.000000,88.000000) scale(0.100000,-0.100000)"
fill="#000000" stroke="none">
<path d="M232 673 c-5 -10 -13 -33 -17 -50 -8 -41 -59 -84 -147 -126 -65 -30
-88 -57 -50 -57 23 0 131 56 160 83 l24 22 -9 -50 c-29 -172 21 -224 118 -124
l49 50 0 -44 c0 -54 22 -77 74 -77 29 0 44 7 65 29 15 16 41 32 59 36 18 4 32
13 32 21 0 12 -8 13 -37 8 -58 -11 -83 -22 -83 -39 0 -24 -51 -31 -67 -10 -18
25 -16 127 3 195 23 79 23 95 -1 95 -16 0 -22 -13 -35 -71 -24 -106 -90 -204
-136 -204 -27 0 -9 207 21 240 23 26 25 83 3 88 -9 2 -21 -5 -26 -15z"/>
</g>
</svg>
