<?xml version="1.0" standalone="no"?>
<!DOCTYPE svg PUBLIC "-//W3C//DTD SVG 20010904//EN"
 "http://www.w3.org/TR/2001/REC-SVG-20010904/DTD/svg10.dtd">
<svg version="1.0" xmlns="http://www.w3.org/2000/svg"
 width="59.000000pt" height="88.000000pt" viewBox="0 0 59.000000 88.000000"
 preserveAspectRatio="xMidYMid meet">
<metadata>
Created by potrace 1.16, written by Peter Selinger 2001-2019
</metadata>
<g transform="translate(0.000000,88.000000) scale(0.100000,-0.100000)"
fill="#000000" stroke="none">
<path d="M392 644 c-37 -26 -79 -122 -92 -212 -18 -123 -44 -110 -75 37 -9 44
-10 71 -4 84 6 10 9 35 7 55 -2 30 -7 38 -25 40 -21 3 -23 0 -23 -46 0 -48 -2
-52 -47 -89 -62 -50 -98 -73 -118 -73 -8 0 -15 -9 -15 -20 0 -11 5 -20 10 -20
19 0 73 31 117 66 50 41 63 42 63 6 0 -37 28 -122 48 -144 18 -21 55 -24 69
-5 13 16 33 98 33 134 0 39 54 149 79 163 17 9 22 8 27 -5 8 -19 20 -19 28 0
16 42 -37 61 -82 29z"/>
</g>
</svg>
