<?xml version="1.0" standalone="no"?>
<!DOCTYPE svg PUBLIC "-//W3C//DTD SVG 20010904//EN"
 "http://www.w3.org/TR/2001/REC-SVG-20010904/DTD/svg10.dtd">
<svg version="1.0" xmlns="http://www.w3.org/2000/svg"
 width="59.000000pt" height="88.000000pt" viewBox="0 0 59.000000 88.000000"
 preserveAspectRatio="xMidYMid meet">
<metadata>
Created by potrace 1.16, written by Peter Selinger 2001-2019
</metadata>
<g transform="translate(0.000000,88.000000) scale(0.100000,-0.100000)"
fill="#000000" stroke="none">
<path d="M235 658 c-2 -7 -6 -30 -10 -51 -8 -51 -143 -193 -192 -203 -23 -5
-33 -12 -33 -25 0 -11 5 -19 10 -19 28 0 101 49 153 102 l57 60 0 -40 c0 -24
7 -47 16 -56 19 -19 65 -21 83 -3 10 10 11 2 8 -36 -4 -45 -7 -49 -47 -69 -51
-26 -117 -91 -136 -136 -12 -26 -12 -41 -3 -75 13 -52 64 -107 98 -107 24 0
24 1 -16 43 -58 58 -65 103 -27 158 25 36 110 106 119 97 1 -1 -5 -69 -14
-150 -16 -141 -16 -148 1 -148 12 0 19 10 23 32 6 39 25 235 24 246 -5 30 2
35 44 29 23 -3 57 -13 75 -22 38 -19 110 -12 119 11 9 23 -3 27 -42 14 -31
-10 -39 -10 -55 5 -11 10 -43 19 -79 22 -50 5 -61 9 -57 22 2 9 7 38 11 66 4
27 14 63 22 78 28 55 43 119 32 139 -25 47 -61 -9 -74 -114 -3 -21 -10 -47
-17 -58 -14 -22 -50 -36 -67 -25 -20 12 -12 124 13 203 6 18 4 22 -14 22 -11
0 -22 -6 -25 -12z"/>
</g>
</svg>
