<?xml version="1.0" standalone="no"?>
<!DOCTYPE svg PUBLIC "-//W3C//DTD SVG 20010904//EN"
 "http://www.w3.org/TR/2001/REC-SVG-20010904/DTD/svg10.dtd">
<svg version="1.0" xmlns="http://www.w3.org/2000/svg"
 width="59.000000pt" height="90.000000pt" viewBox="0 0 59.000000 90.000000"
 preserveAspectRatio="xMidYMid meet">
<metadata>
Created by potrace 1.16, written by Peter Selinger 2001-2019
</metadata>
<g transform="translate(0.000000,90.000000) scale(0.100000,-0.100000)"
fill="#000000" stroke="none">
<path d="M236 738 c-2 -13 -12 -75 -21 -138 -9 -63 -24 -146 -32 -184 l-15
-70 31 -28 c35 -31 73 -44 98 -32 10 4 41 6 68 5 38 -2 57 2 75 17 32 26 19
39 -23 24 -34 -12 -77 -16 -77 -7 0 2 9 19 20 37 24 40 26 105 4 136 -11 17
-25 22 -58 22 -23 0 -47 -5 -54 -12 -6 -6 -14 -9 -17 -6 -6 5 10 91 26 144 15
49 12 114 -6 114 -8 0 -17 -10 -19 -22z m102 -303 c1 -27 -2 -57 -8 -65 -8
-13 -12 -11 -26 9 -14 20 -23 22 -55 18 -22 -3 -39 -2 -39 1 0 11 42 76 54 85
6 4 25 6 41 5 29 -3 30 -5 33 -53z m-56 -82 c26 -23 22 -33 -11 -33 -31 0 -57
22 -46 40 9 15 36 12 57 -7z"/>
</g>
</svg>
