<?xml version="1.0" standalone="no"?>
<!DOCTYPE svg PUBLIC "-//W3C//DTD SVG 20010904//EN"
 "http://www.w3.org/TR/2001/REC-SVG-20010904/DTD/svg10.dtd">
<svg version="1.0" xmlns="http://www.w3.org/2000/svg"
 width="59.000000pt" height="90.000000pt" viewBox="0 0 59.000000 90.000000"
 preserveAspectRatio="xMidYMid meet">
<metadata>
Created by potrace 1.16, written by Peter Selinger 2001-2019
</metadata>
<g transform="translate(0.000000,90.000000) scale(0.100000,-0.100000)"
fill="#000000" stroke="none">
<path d="M318 543 c-9 -9 -29 -51 -44 -94 -15 -44 -40 -93 -55 -111 -28 -32
-29 -33 -35 -10 -3 12 -10 22 -15 22 -16 0 -21 -28 -9 -50 17 -32 59 -23 86
18 l23 33 20 -46 c27 -61 52 -60 116 5 38 39 47 52 37 62 -10 10 -23 2 -61
-36 l-49 -48 -16 30 c-20 40 -20 95 0 138 20 43 44 45 44 4 0 -20 5 -30 15
-30 11 0 15 12 15 49 0 71 -35 102 -72 64z"/>
</g>
</svg>
