<?xml version="1.0" standalone="no"?>
<!DOCTYPE svg PUBLIC "-//W3C//DTD SVG 20010904//EN"
 "http://www.w3.org/TR/2001/REC-SVG-20010904/DTD/svg10.dtd">
<svg version="1.0" xmlns="http://www.w3.org/2000/svg"
 width="59.000000pt" height="90.000000pt" viewBox="0 0 59.000000 90.000000"
 preserveAspectRatio="xMidYMid meet">
<metadata>
Created by potrace 1.16, written by Peter Selinger 2001-2019
</metadata>
<g transform="translate(0.000000,90.000000) scale(0.100000,-0.100000)"
fill="#000000" stroke="none">
<path d="M446 738 c-9 -27 -27 -126 -41 -219 -14 -101 -35 -149 -89 -198 -32
-30 -39 -24 -39 32 2 73 56 163 65 106 4 -28 26 -36 34 -14 8 21 -21 85 -39
85 -25 0 -68 -57 -92 -125 -14 -37 -30 -74 -36 -81 -17 -20 -40 -17 -46 6 -7
25 -28 21 -28 -5 0 -24 46 -58 68 -50 9 4 19 15 22 26 9 26 22 24 29 -6 5 -18
13 -25 30 -25 28 0 82 42 91 70 10 30 23 24 27 -12 4 -41 31 -48 64 -17 23 22
34 69 15 69 -5 0 -16 -11 -25 -25 -42 -64 -48 25 -10 135 30 85 40 249 17 257
-7 3 -15 -1 -17 -9z"/>
</g>
</svg>
