<?xml version="1.0" standalone="no"?>
<!DOCTYPE svg PUBLIC "-//W3C//DTD SVG 20010904//EN"
 "http://www.w3.org/TR/2001/REC-SVG-20010904/DTD/svg10.dtd">
<svg version="1.0" xmlns="http://www.w3.org/2000/svg"
 width="59.000000pt" height="90.000000pt" viewBox="0 0 59.000000 90.000000"
 preserveAspectRatio="xMidYMid meet">
<metadata>
Created by potrace 1.16, written by Peter Selinger 2001-2019
</metadata>
<g transform="translate(0.000000,90.000000) scale(0.100000,-0.100000)"
fill="#000000" stroke="none">
<path d="M301 618 c-14 -127 -35 -179 -93 -242 -21 -21 -38 -41 -38 -43 0 -12
40 0 55 17 36 40 43 12 37 -155 -5 -149 -4 -155 15 -155 15 0 27 18 52 85 38
97 39 156 2 206 -25 33 -27 49 -7 49 21 0 73 47 63 56 -5 5 -22 1 -39 -9 -17
-10 -33 -16 -35 -13 -3 2 1 35 8 73 7 37 14 107 16 156 4 70 2 87 -10 87 -10
0 -17 -29 -26 -112z m-11 -212 c0 -8 -4 -17 -9 -21 -12 -7 -24 12 -16 25 9 15
25 12 25 -4z m34 -141 c7 -34 -9 -110 -26 -129 -9 -11 -11 117 -2 151 8 30 20
21 28 -22z"/>
</g>
</svg>
