<?xml version="1.0" standalone="no"?>
<!DOCTYPE svg PUBLIC "-//W3C//DTD SVG 20010904//EN"
 "http://www.w3.org/TR/2001/REC-SVG-20010904/DTD/svg10.dtd">
<svg version="1.0" xmlns="http://www.w3.org/2000/svg"
 width="59.000000pt" height="90.000000pt" viewBox="0 0 59.000000 90.000000"
 preserveAspectRatio="xMidYMid meet">
<metadata>
Created by potrace 1.16, written by Peter Selinger 2001-2019
</metadata>
<g transform="translate(0.000000,90.000000) scale(0.100000,-0.100000)"
fill="#000000" stroke="none">
<path d="M293 487 c-16 -18 -42 -63 -58 -100 -15 -37 -32 -67 -37 -67 -5 0
-11 14 -15 30 -7 40 -23 38 -23 -2 1 -75 52 -80 87 -8 l22 45 1 -37 c0 -45 13
-55 45 -34 24 16 25 16 25 -8 0 -19 -8 -27 -37 -37 -66 -21 -93 -46 -93 -85 0
-80 112 -186 134 -128 4 9 11 61 18 116 7 66 16 102 25 105 7 3 13 14 13 25 0
14 -5 18 -15 14 -20 -7 -20 20 1 91 13 44 14 60 4 84 -18 41 -58 40 -97 -4z
m56 -57 c-12 -57 -29 -90 -46 -90 -16 0 -16 10 -2 70 11 47 37 86 50 73 5 -5
4 -28 -2 -53z m-12 -202 c-3 -13 -9 -51 -13 -85 -3 -35 -10 -63 -14 -63 -13 0
-60 60 -66 85 -8 31 -1 41 44 65 48 25 55 25 49 -2z"/>
</g>
</svg>
