<?xml version="1.0" standalone="no"?>
<!DOCTYPE svg PUBLIC "-//W3C//DTD SVG 20010904//EN"
 "http://www.w3.org/TR/2001/REC-SVG-20010904/DTD/svg10.dtd">
<svg version="1.0" xmlns="http://www.w3.org/2000/svg"
 width="59.000000pt" height="90.000000pt" viewBox="0 0 59.000000 90.000000"
 preserveAspectRatio="xMidYMid meet">
<metadata>
Created by potrace 1.16, written by Peter Selinger 2001-2019
</metadata>
<g transform="translate(0.000000,90.000000) scale(0.100000,-0.100000)"
fill="#000000" stroke="none">
<path d="M323 728 c-4 -7 -20 -44 -34 -83 -23 -63 -30 -72 -70 -93 -24 -12
-45 -27 -47 -32 -5 -13 45 -13 53 0 3 6 12 10 19 10 10 0 6 -24 -14 -92 -43
-146 -45 -158 -23 -158 12 0 23 12 31 33 7 19 23 44 36 56 l24 23 7 -34 c10
-45 22 -58 55 -58 32 0 110 53 110 75 0 21 -17 19 -53 -9 -52 -39 -68 -37 -81
9 -13 46 -37 56 -68 28 -21 -18 -21 -18 -15 2 3 11 15 50 25 86 11 37 36 87
56 113 38 50 50 82 44 113 -4 22 -43 30 -55 11z m16 -70 c-7 -13 -14 -18 -16
-11 -3 7 1 22 8 35 7 13 14 18 16 11 3 -7 -1 -22 -8 -35z"/>
</g>
</svg>
