<?xml version="1.0" standalone="no"?>
<!DOCTYPE svg PUBLIC "-//W3C//DTD SVG 20010904//EN"
 "http://www.w3.org/TR/2001/REC-SVG-20010904/DTD/svg10.dtd">
<svg version="1.0" xmlns="http://www.w3.org/2000/svg"
 width="59.000000pt" height="90.000000pt" viewBox="0 0 59.000000 90.000000"
 preserveAspectRatio="xMidYMid meet">
<metadata>
Created by potrace 1.16, written by Peter Selinger 2001-2019
</metadata>
<g transform="translate(0.000000,90.000000) scale(0.100000,-0.100000)"
fill="#000000" stroke="none">
<path d="M346 661 c-10 -11 -16 -31 -14 -48 3 -24 7 -28 33 -28 40 0 58 44 30
75 -22 25 -27 25 -49 1z m34 -36 c0 -8 -4 -15 -9 -15 -13 0 -22 16 -14 24 11
11 23 6 23 -9z"/>
<path d="M319 524 c-7 -8 -14 -40 -17 -70 -4 -48 -8 -57 -33 -70 -39 -19 -37
-36 4 -32 46 4 40 -15 -18 -54 -79 -53 -85 -114 -19 -188 37 -41 75 -52 91
-28 4 7 9 62 10 123 l2 110 40 13 c24 8 41 20 41 29 0 15 -12 15 -67 -2 -20
-6 -23 -4 -23 21 0 16 9 40 20 54 27 35 28 110 1 110 -10 0 -24 -7 -32 -16z
m-13 -295 c-3 -34 -6 -77 -6 -95 0 -42 -20 -37 -51 13 -29 46 -27 79 7 114 45
48 58 40 50 -32z"/>
</g>
</svg>
