<?xml version="1.0" standalone="no"?>
<!DOCTYPE svg PUBLIC "-//W3C//DTD SVG 20010904//EN"
 "http://www.w3.org/TR/2001/REC-SVG-20010904/DTD/svg10.dtd">
<svg version="1.0" xmlns="http://www.w3.org/2000/svg"
 width="59.000000pt" height="90.000000pt" viewBox="0 0 59.000000 90.000000"
 preserveAspectRatio="xMidYMid meet">
<metadata>
Created by potrace 1.16, written by Peter Selinger 2001-2019
</metadata>
<g transform="translate(0.000000,90.000000) scale(0.100000,-0.100000)"
fill="#000000" stroke="none">
<path d="M348 703 c-24 -27 -43 -80 -58 -156 -10 -56 -17 -71 -36 -79 -30 -14
-33 -42 -3 -33 19 6 20 4 13 -53 -7 -65 5 -102 34 -102 9 0 37 18 62 39 36 32
43 42 33 52 -11 11 -19 7 -46 -19 -35 -34 -63 -43 -53 -16 3 9 6 37 6 64 0 43
4 52 49 99 55 59 82 139 65 189 -11 33 -44 40 -66 15z m37 -62 c-12 -69 -65
-155 -65 -106 0 13 19 75 41 133 14 36 32 16 24 -27z"/>
</g>
</svg>
