<?xml version="1.0" standalone="no"?>
<!DOCTYPE svg PUBLIC "-//W3C//DTD SVG 20010904//EN"
 "http://www.w3.org/TR/2001/REC-SVG-20010904/DTD/svg10.dtd">
<svg version="1.0" xmlns="http://www.w3.org/2000/svg"
 width="59.000000pt" height="91.000000pt" viewBox="0 0 59.000000 91.000000"
 preserveAspectRatio="xMidYMid meet">
<metadata>
Created by potrace 1.16, written by Peter Selinger 2001-2019
</metadata>
<g transform="translate(0.000000,91.000000) scale(0.100000,-0.100000)"
fill="#000000" stroke="none">
<path d="M313 456 c-10 -14 -31 -43 -47 -65 -32 -43 -46 -51 -46 -25 0 9 -6
14 -12 12 -19 -7 -16 -49 4 -61 13 -9 21 -7 36 6 24 22 27 22 28 -8 1 -14 4
-32 8 -40 7 -18 53 -20 59 -2 12 32 16 -7 8 -67 -21 -145 19 -127 115 52 15
29 36 58 46 63 21 11 24 34 6 45 -17 11 -73 -58 -99 -122 -20 -48 -39 -70 -39
-45 0 24 30 161 44 200 20 56 20 61 -3 61 -11 0 -23 5 -26 10 -12 20 -63 11
-82 -14z m60 -48 c4 -24 -2 -45 -19 -75 -14 -24 -29 -43 -33 -43 -27 0 -14 98
17 133 22 24 29 21 35 -15z"/>
</g>
</svg>
