<?xml version="1.0" standalone="no"?>
<!DOCTYPE svg PUBLIC "-//W3C//DTD SVG 20010904//EN"
 "http://www.w3.org/TR/2001/REC-SVG-20010904/DTD/svg10.dtd">
<svg version="1.0" xmlns="http://www.w3.org/2000/svg"
 width="58.000000pt" height="91.000000pt" viewBox="0 0 58.000000 91.000000"
 preserveAspectRatio="xMidYMid meet">
<metadata>
Created by potrace 1.16, written by Peter Selinger 2001-2019
</metadata>
<g transform="translate(0.000000,91.000000) scale(0.100000,-0.100000)"
fill="#000000" stroke="none">
<path d="M242 498 c-22 -22 -15 -76 13 -94 33 -21 32 -44 -3 -77 -29 -28 -42
-27 -42 5 0 22 -26 24 -34 2 -9 -24 20 -64 47 -64 28 0 75 47 86 85 12 47 31
43 31 -7 0 -49 13 -68 46 -68 25 0 64 43 64 71 0 29 -23 22 -42 -12 -10 -17
-22 -27 -28 -24 -15 9 -12 70 5 112 19 45 19 63 -1 63 -8 0 -21 -15 -29 -34
-21 -49 -35 -54 -35 -12 0 19 -3 41 -6 50 -7 19 -55 21 -72 4z m50 -43 c3 -14
1 -28 -3 -31 -15 -9 -29 6 -29 32 0 32 26 31 32 -1z"/>
</g>
</svg>
