<?xml version="1.0" standalone="no"?>
<!DOCTYPE svg PUBLIC "-//W3C//DTD SVG 20010904//EN"
 "http://www.w3.org/TR/2001/REC-SVG-20010904/DTD/svg10.dtd">
<svg version="1.0" xmlns="http://www.w3.org/2000/svg"
 width="59.000000pt" height="91.000000pt" viewBox="0 0 59.000000 91.000000"
 preserveAspectRatio="xMidYMid meet">
<metadata>
Created by potrace 1.16, written by Peter Selinger 2001-2019
</metadata>
<g transform="translate(0.000000,91.000000) scale(0.100000,-0.100000)"
fill="#000000" stroke="none">
<path d="M316 495 c-3 -8 -3 -21 -1 -28 3 -7 -22 -39 -55 -72 -33 -33 -60 -63
-60 -67 0 -19 26 -5 81 43 32 28 63 48 68 45 19 -12 24 -67 8 -84 -14 -14 -18
-13 -41 1 -31 21 -46 22 -46 4 0 -41 83 -63 112 -29 27 31 29 53 8 98 -12 29
-17 56 -13 74 5 28 3 30 -25 30 -17 0 -32 -6 -36 -15z"/>
</g>
</svg>
