<?xml version="1.0" standalone="no"?>
<!DOCTYPE svg PUBLIC "-//W3C//DTD SVG 20010904//EN"
 "http://www.w3.org/TR/2001/REC-SVG-20010904/DTD/svg10.dtd">
<svg version="1.0" xmlns="http://www.w3.org/2000/svg"
 width="59.000000pt" height="91.000000pt" viewBox="0 0 59.000000 91.000000"
 preserveAspectRatio="xMidYMid meet">
<metadata>
Created by potrace 1.16, written by Peter Selinger 2001-2019
</metadata>
<g transform="translate(0.000000,91.000000) scale(0.100000,-0.100000)"
fill="#000000" stroke="none">
<path d="M295 643 c-3 -32 -7 -65 -8 -73 -1 -8 -24 -22 -51 -31 -60 -18 -77
-45 -25 -36 19 3 42 9 52 12 17 7 18 4 12 -31 -8 -48 -32 -83 -73 -109 -17
-11 -31 -26 -32 -33 0 -18 51 -5 72 19 21 25 28 24 28 -4 0 -31 18 -47 53 -47
37 0 87 49 87 85 0 34 -13 29 -42 -15 -14 -20 -32 -35 -43 -35 -28 0 -32 74
-6 140 18 49 25 54 89 71 6 2 12 11 12 20 0 17 -22 16 -63 -1 -16 -7 -18 -4
-12 26 7 43 -7 93 -27 97 -13 3 -18 -9 -23 -55z"/>
</g>
</svg>
