<?xml version="1.0" standalone="no"?>
<!DOCTYPE svg PUBLIC "-//W3C//DTD SVG 20010904//EN"
 "http://www.w3.org/TR/2001/REC-SVG-20010904/DTD/svg10.dtd">
<svg version="1.0" xmlns="http://www.w3.org/2000/svg"
 width="59.000000pt" height="91.000000pt" viewBox="0 0 59.000000 91.000000"
 preserveAspectRatio="xMidYMid meet">
<metadata>
Created by potrace 1.16, written by Peter Selinger 2001-2019
</metadata>
<g transform="translate(0.000000,91.000000) scale(0.100000,-0.100000)"
fill="#000000" stroke="none">
<path d="M214 506 c-40 -40 -47 -86 -13 -86 15 0 19 5 15 16 -6 15 20 64 34
64 4 0 5 -49 2 -110 -4 -97 -3 -110 12 -116 11 -4 29 2 48 16 28 20 32 21 40
6 21 -38 118 7 118 56 0 26 -13 22 -44 -13 -40 -45 -51 -34 -49 47 2 38 5 79
8 92 4 15 0 24 -10 28 -22 9 -24 5 -34 -75 -9 -70 -31 -121 -52 -121 -8 0 -9
33 -4 106 6 85 5 108 -6 115 -22 14 -29 11 -65 -25z"/>
</g>
</svg>
