<?xml version="1.0" standalone="no"?>
<!DOCTYPE svg PUBLIC "-//W3C//DTD SVG 20010904//EN"
 "http://www.w3.org/TR/2001/REC-SVG-20010904/DTD/svg10.dtd">
<svg version="1.0" xmlns="http://www.w3.org/2000/svg"
 width="58.000000pt" height="91.000000pt" viewBox="0 0 58.000000 91.000000"
 preserveAspectRatio="xMidYMid meet">
<metadata>
Created by potrace 1.16, written by Peter Selinger 2001-2019
</metadata>
<g transform="translate(0.000000,91.000000) scale(0.100000,-0.100000)"
fill="#000000" stroke="none">
<path d="M375 524 c-27 -35 -55 -115 -55 -156 0 -43 -20 -11 -47 75 -19 61
-34 92 -43 92 -21 0 -17 -25 19 -130 49 -141 75 -149 105 -30 9 33 23 77 32
97 14 31 20 36 31 26 19 -15 36 3 31 33 -5 40 -40 36 -73 -7z"/>
</g>
</svg>
