<?xml version="1.0" standalone="no"?>
<!DOCTYPE svg PUBLIC "-//W3C//DTD SVG 20010904//EN"
 "http://www.w3.org/TR/2001/REC-SVG-20010904/DTD/svg10.dtd">
<svg version="1.0" xmlns="http://www.w3.org/2000/svg"
 width="59.000000pt" height="91.000000pt" viewBox="0 0 59.000000 91.000000"
 preserveAspectRatio="xMidYMid meet">
<metadata>
Created by potrace 1.16, written by Peter Selinger 2001-2019
</metadata>
<g transform="translate(0.000000,91.000000) scale(0.100000,-0.100000)"
fill="#000000" stroke="none">
<path d="M256 488 c-22 -12 -76 -71 -93 -102 -18 -31 -16 -46 7 -46 13 0 20 7
20 19 0 20 75 111 92 111 10 0 8 -35 -9 -142 -5 -34 -3 -38 15 -38 15 0 24 10
32 35 12 37 30 47 30 17 0 -25 20 -42 50 -42 31 0 70 25 70 46 0 18 -10 18
-46 -1 -51 -26 -70 18 -39 92 19 46 19 65 -1 61 -9 -2 -25 -25 -36 -53 -29
-76 -39 -78 -32 -7 7 61 6 62 -17 62 -13 0 -33 -6 -43 -12z"/>
</g>
</svg>
